<mxfile host="65bd71144e">
    <diagram id="yvuhHx2GofF4obykak1I" name="networking">
        <mxGraphModel dx="870" dy="647" grid="1" gridSize="10" guides="1" tooltips="1" connect="1" arrows="1" fold="1" page="1" pageScale="1" pageWidth="850" pageHeight="1100" math="0" shadow="0">
            <root>
                <mxCell id="0"/>
                <mxCell id="1" parent="0"/>
                <mxCell id="-lgwNOK65a1t3fZFSyNq-1" value="" style="rounded=0;whiteSpace=wrap;html=1;strokeWidth=2;shadow=0;sketch=0;" parent="1" vertex="1">
                    <mxGeometry x="80" y="80" width="200" height="240" as="geometry"/>
                </mxCell>
                <mxCell id="-lgwNOK65a1t3fZFSyNq-2" value="&lt;font data-font-src=&quot;https://fonts.googleapis.com/css?family=Economica&quot; face=&quot;Economica&quot; style=&quot;font-size: 18px;&quot;&gt;SERVER&lt;/font&gt;" style="text;html=1;strokeColor=none;fillColor=none;align=center;verticalAlign=middle;whiteSpace=wrap;rounded=0;shadow=0;sketch=0;fontSize=18;fontStyle=1" parent="1" vertex="1">
                    <mxGeometry x="80" y="80" width="200" height="40" as="geometry"/>
                </mxCell>
                <mxCell id="-lgwNOK65a1t3fZFSyNq-3" value="" style="rounded=0;whiteSpace=wrap;html=1;strokeWidth=2;shadow=0;sketch=0;" parent="1" vertex="1">
                    <mxGeometry x="480" y="40" width="200" height="120" as="geometry"/>
                </mxCell>
                <mxCell id="-lgwNOK65a1t3fZFSyNq-4" value="&lt;font data-font-src=&quot;https://fonts.googleapis.com/css?family=Economica&quot; face=&quot;Economica&quot; style=&quot;font-size: 18px;&quot;&gt;Client 1&lt;/font&gt;" style="text;html=1;strokeColor=none;fillColor=none;align=center;verticalAlign=middle;whiteSpace=wrap;rounded=0;shadow=0;sketch=0;fontSize=18;fontStyle=1" parent="1" vertex="1">
                    <mxGeometry x="480" y="40" width="200" height="40" as="geometry"/>
                </mxCell>
            </root>
        </mxGraphModel>
    </diagram>
    <diagram id="PmOE8CDzCug5vRbFJ7DR" name="Page-2">
        <mxGraphModel dx="870" dy="647" grid="1" gridSize="10" guides="1" tooltips="1" connect="1" arrows="1" fold="1" page="1" pageScale="1" pageWidth="850" pageHeight="1100" math="0" shadow="0">
            <root>
                <mxCell id="2TNLxdJRCQXy5ZFhtf6P-0"/>
                <mxCell id="2TNLxdJRCQXy5ZFhtf6P-1" parent="2TNLxdJRCQXy5ZFhtf6P-0"/>
                <mxCell id="2TNLxdJRCQXy5ZFhtf6P-2" value="" style="rounded=1;whiteSpace=wrap;html=1;" vertex="1" parent="2TNLxdJRCQXy5ZFhtf6P-1">
                    <mxGeometry x="80" y="80" width="200" height="200" as="geometry"/>
                </mxCell>
            </root>
        </mxGraphModel>
    </diagram>
</mxfile>